<?xml version="1.0" encoding="utf-8"?>
<svg version="1.1" xmlns="http://www.w3.org/2000/svg" xmlns:xlink="http://www.w3.org/1999/xlink" x="0px" y="0px"
	viewBox="0 0 1000 1000" style="enable-background:new 0 0 1000 1000;" xml:space="preserve">
	<style type="text/css">
		.st0 {
			fill: #F7B85C;
		}

		.st1 {
			fill: #EEF2F4;
		}

		.st2 {
			enable-background: new;
		}

		.st3 {
			fill: #212552;
		}

		.st4 {
			fill: #92D6E9;
		}

		.st5 {
			opacity: 0.3;
			fill: #0A1E2B;
			stroke: #0A1E2B;
			stroke-width: 6;
			stroke-linecap: round;
			stroke-linejoin: round;
			stroke-miterlimit: 10;
			enable-background: new;
		}

		.st6 {
			fill: none;
			stroke: #212552;
			stroke-width: 6;
			stroke-linecap: round;
			stroke-linejoin: round;
			stroke-miterlimit: 10;
		}

		.st7 {
			fill: #CBEDF9;
		}

		.st8 {
			fill: #E8F9FF;
		}

		.st9 {
			opacity: 0.23;
			fill: #0A1E2B;
			stroke: #0A1E2B;
			stroke-width: 6;
			stroke-linecap: round;
			stroke-linejoin: round;
			stroke-miterlimit: 10;
			enable-background: new;
		}

		.st10 {
			fill: none;
			stroke: #212552;
			stroke-width: 10;
			stroke-linecap: round;
			stroke-linejoin: round;
			stroke-miterlimit: 10;
		}

		.st11 {
			fill: #FFEA9E;
		}

		.st12 {
			fill: #EDC75D;
		}

		.st13 {
			fill: none;
			stroke: #212552;
			stroke-width: 8;
			stroke-linecap: round;
			stroke-linejoin: round;
			stroke-miterlimit: 10;
		}

		.st14 {
			fill: #5F9E71;
			stroke: #212552;
			stroke-width: 6;
			stroke-linecap: round;
			stroke-linejoin: round;
			stroke-miterlimit: 10;
		}

		.st15 {
			fill: #90C49E;
		}

		.st16 {
			fill: #FFFFFF;
		}
	</style>
	<ellipse class="st3" cx="500" cy="685.5" rx="182.6" ry="22.8" />
	<g>
		<path class="st4" d="M459.5,669.4V662c0-3.3-2.7-6-6-6h-66c-3.3,0-6,2.7-6,6v22c0,3.3,2.7,6,6,6h43.9
		c4.8,0,9.4-1.9,12.8-5.3L459.5,669.4z" />
		<path class="st5" d="M453.5,656h-66c-3.3,0-6,2.7-6,6v20.4h65l13-13V662C459.5,658.7,456.8,656,453.5,656z" />
		<path class="st4" d="M540.5,669.4V662c0-3.3,2.7-6,6-6h66c3.3,0,6,2.7,6,6v22c0,3.3-2.7,6-6,6h-43.9
		c-4.8,0-9.4-1.9-12.8-5.3L540.5,669.4z" />
		<path class="st5" d="M612.5,656h-66c-3.3,0-6,2.7-6,6v7.4l13,13h65V662C618.5,658.7,615.8,656,612.5,656z" />
		<path class="st6" d="M459.5,669.4V662c0-3.3-2.7-6-6-6h-66c-3.3,0-6,2.7-6,6v22c0,3.3,2.7,6,6,6h43.9
		c4.8,0,9.4-1.9,12.8-5.3L459.5,669.4z" />
		<path class="st6" d="M540.5,669.4V662c0-3.3,2.7-6,6-6h66c3.3,0,6,2.7,6,6v22c0,3.3-2.7,6-6,6h-43.9
		c-4.8,0-9.4-1.9-12.8-5.3L540.5,669.4z" />
		<path class="st7" d="M630,669.5H370c-22.1,0-40-17.9-40-40v-260c0-22.1,17.9-40,40-40h260c22.1,0,40,17.9,40,40v260
		C670,651.6,652.1,669.5,630,669.5z" />
		<path class="st8" d="M630,329.5H370c-22.1,0-40,17.9-40,40v23c0-22.1,17.9-40,40-40h260c22.1,0,40,17.9,40,40v-23
		C670,347.4,652.1,329.5,630,329.5z" />
		<polygon class="st9" points="568.7,329.1 594.3,329.1 577,365.5 	" />
		<path class="st4" d="M630,646.5H370c-22.1,0-40-17.9-40-40v23c0,22.1,17.9,40,40,40h260c22.1,0,40-17.9,40-40v-23
		C670,628.6,652.1,646.5,630,646.5z" />
		<path class="st6" d="M630,669.5H370c-22.1,0-40-17.9-40-40v-260c0-22.1,17.9-40,40-40h260c22.1,0,40,17.9,40,40v260
		C670,651.6,652.1,669.5,630,669.5z" />
		<path class="st8" d="M618,365.5H382c-8.8,0-16,7.2-16,16v8c0-8.8,7.2-13,16-13h236c8.8,0,16,4.2,16,13v-8
		C634,372.6,626.8,365.5,618,365.5z" />
		<path class="st4" d="M618,620.5H382c-8.8,0-16-7.2-16-16v13c0,8.8,7.2,16,16,16h236c8.8,0,16-7.2,16-16v-13
		C634,613.3,626.8,620.5,618,620.5z" />
		<path class="st6" d="M382,633.5c-8.8,0-16-7.2-16-16v-236c0-8.8,7.2-16,16-16h236c8.8,0,16,7.2,16,16v236
		c0,8.8-7.2,16-16,16H382z" />
		<path class="st9" d="M605.3,594.6h-2c-2.2,0-4-1.8-4-4v-152c0-2.2,1.8-4,4-4h2c2.2,0,4,1.8,4,4v152
		C609.3,592.8,607.5,594.6,605.3,594.6z" />
		<path class="st4" d="M605.3,574.6h-2c-2.2,0-4-1.8-4-4v-152c0-2.2,1.8-4,4-4h2c2.2,0,4,1.8,4,4v152
		C609.3,572.8,607.5,574.6,605.3,574.6z" />
		<path class="st6" d="M605.3,574.6h-2c-2.2,0-4-1.8-4-4v-152c0-2.2,1.8-4,4-4h2c2.2,0,4,1.8,4,4v152
		C609.3,572.8,607.5,574.6,605.3,574.6z" />
		<circle class="st9" cx="500" cy="507.5" r="65" />
		<circle class="st7" cx="500" cy="499.5" r="65" />
		<circle class="st6" cx="500" cy="499.5" r="65" />
		<circle class="st4" cx="500" cy="499.5" r="54" />
		<line class="st10" x1="500" y1="458.5" x2="500" y2="540.5" />
		<line class="st10" x1="541" y1="499.5" x2="459" y2="499.5" />
		<line class="st10" x1="529" y1="470.5" x2="471" y2="528.5" />
		<line class="st10" x1="529" y1="528.5" x2="471" y2="470.5" />
		<path class="st5" d="M500,547.2L500,547.2c-13.8,0-25-11.2-25-25v-25h50v25C525,536,513.8,547.2,500,547.2z" />
		<path class="st9" d="M366,462L366,462c-4.4,0-8-3.6-8-8v-24c0-4.4,3.6-8,8-8l0,0c4.4,0,8,3.6,8,8v24
		C374,458.4,370.4,462,366,462z" />
		<path class="st9" d="M366,592.5L366,592.5c-4.4,0-8-3.6-8-8v-24c0-4.4,3.6-8,8-8l0,0c4.4,0,8,3.6,8,8v24
		C374,588.9,370.4,592.5,366,592.5z" />
		<path class="st4" d="M366,454L366,454c-4.4,0-8-3.6-8-8v-24c0-4.4,3.6-8,8-8l0,0c4.4,0,8,3.6,8,8v24
		C374,450.4,370.4,454,366,454z" />
		<path class="st4" d="M366,585L366,585c-4.4,0-8-3.6-8-8v-24c0-4.4,3.6-8,8-8l0,0c4.4,0,8,3.6,8,8v24
		C374,581.4,370.4,585,366,585z" />
		<path class="st6" d="M366,454L366,454c-4.4,0-8-3.6-8-8v-24c0-4.4,3.6-8,8-8l0,0c4.4,0,8,3.6,8,8v24
		C374,450.4,370.4,454,366,454z" />
		<path class="st6" d="M366,585L366,585c-4.4,0-8-3.6-8-8v-24c0-4.4,3.6-8,8-8l0,0c4.4,0,8,3.6,8,8v24
		C374,581.4,370.4,585,366,585z" />
		<circle class="st11" cx="500" cy="499.5" r="25" />
		<circle class="st12" cx="500" cy="499.5" r="11.2" />
		<circle class="st13" cx="500" cy="499.5" r="23" />
		<path class="st14" d="M579,365.5h-68.5v-52.2c0-4,3.2-7.2,7.2-7.2h54c4,0,7.2,3.2,7.2,7.2L579,365.5L579,365.5z" />
		<path class="st15" d="M565.5,318.5h-14.6c0,3.4-2.7,6.1-6.1,6.1s-6.1-2.7-6.1-6.1H524c-1.7,0-3.2,1.4-3.2,3.2v43.8
		h47.8v-43.8C568.7,319.9,567.2,318.5,565.5,318.5z" />
		<ellipse class="st16" cx="544.8" cy="354.8" rx="15" ry="14.3" />
		<path class="st6" d="M579,365.5h-68.5v-52.2c0-4,3.2-7.2,7.2-7.2h54c4,0,7.2,3.2,7.2,7.2L579,365.5L579,365.5z" />
	</g>
	<g>
		<line class="st6" x1="698" y1="347.3" x2="677.8" y2="344.5" />
		<line class="st6" x1="649.9" y1="315.6" x2="646.9" y2="295.4" />
		<line class="st6" x1="669.9" y1="322.9" x2="684.4" y2="308.4" />
	</g>
</svg>
